<mxfile host="Electron" agent="Mozilla/5.0 (Macintosh; Intel Mac OS X 10_15_7) AppleWebKit/537.36 (KHTML, like Gecko) draw.io/27.0.9 Chrome/134.0.6998.205 Electron/35.4.0 Safari/537.36" version="27.0.9">
  <diagram name="Seite-1" id="DDpwXG4gtDmWJV-CHwd3">
    <mxGraphModel dx="2458" dy="1809" grid="1" gridSize="10" guides="1" tooltips="1" connect="1" arrows="1" fold="1" page="1" pageScale="1" pageWidth="1169" pageHeight="827" math="0" shadow="0">
      <root>
        <mxCell id="0" />
        <mxCell id="1" parent="0" />
        <mxCell id="luhas9mJuNffGWfN3Tlp-126" value="🌐  Web Application" style="whiteSpace=wrap;strokeWidth=2;fontFamily=Verdana;fillColor=#f8cecc;strokeColor=#b85450;verticalAlign=top;" vertex="1" parent="1">
          <mxGeometry x="433.66" y="1538.68" width="187.68" height="170" as="geometry" />
        </mxCell>
        <mxCell id="luhas9mJuNffGWfN3Tlp-1" value="🌐 Frontend" style="whiteSpace=wrap;strokeWidth=2;fontFamily=Verdana;fontSize=14;fillColor=#dae8fc;strokeColor=#6c8ebf;" vertex="1" parent="1">
          <mxGeometry x="20" y="20" width="145" height="54" as="geometry" />
        </mxCell>
        <mxCell id="luhas9mJuNffGWfN3Tlp-2" value="⚙️ Backend" style="whiteSpace=wrap;strokeWidth=2;fontFamily=Verdana;fontSize=14;fillColor=#ffe6cc;strokeColor=#d79b00;" vertex="1" parent="1">
          <mxGeometry x="22" y="124" width="141" height="54" as="geometry" />
        </mxCell>
        <mxCell id="luhas9mJuNffGWfN3Tlp-3" value="Database" style="shape=cylinder3;boundedLbl=1;backgroundOutline=1;size=10;strokeWidth=2;whiteSpace=wrap;fontFamily=Verdana;fontSize=14;fillColor=#e1d5e7;strokeColor=#9673a6;" vertex="1" parent="1">
          <mxGeometry x="39" y="228" width="107" height="74" as="geometry" />
        </mxCell>
        <mxCell id="luhas9mJuNffGWfN3Tlp-4" value="" style="curved=1;startArrow=block;endArrow=block;exitX=0.5;exitY=1;entryX=0.5;entryY=0;rounded=0;fontFamily=Verdana;fontSize=14;" edge="1" parent="1" source="luhas9mJuNffGWfN3Tlp-1" target="luhas9mJuNffGWfN3Tlp-2">
          <mxGeometry relative="1" as="geometry">
            <Array as="points" />
          </mxGeometry>
        </mxCell>
        <mxCell id="luhas9mJuNffGWfN3Tlp-5" value="" style="curved=1;startArrow=block;endArrow=block;exitX=0.5;exitY=1;entryX=0.5;entryY=0;rounded=0;fontFamily=Verdana;fontSize=14;" edge="1" parent="1" source="luhas9mJuNffGWfN3Tlp-2" target="luhas9mJuNffGWfN3Tlp-3">
          <mxGeometry relative="1" as="geometry">
            <Array as="points" />
          </mxGeometry>
        </mxCell>
        <mxCell id="luhas9mJuNffGWfN3Tlp-11" value="🏛️ Portal" style="whiteSpace=wrap;strokeWidth=2;fontFamily=Verdana;fillColor=#f8cecc;strokeColor=#b85450;" vertex="1" parent="1">
          <mxGeometry x="462" y="440" width="123" height="54" as="geometry" />
        </mxCell>
        <mxCell id="luhas9mJuNffGWfN3Tlp-37" value="" style="curved=1;startArrow=none;endArrow=block;exitX=1;exitY=0.63;entryX=0.5;entryY=0;rounded=0;fontFamily=Verdana;" edge="1" parent="1" source="luhas9mJuNffGWfN3Tlp-11" target="luhas9mJuNffGWfN3Tlp-12">
          <mxGeometry relative="1" as="geometry">
            <Array as="points">
              <mxPoint x="940" y="490" />
            </Array>
          </mxGeometry>
        </mxCell>
        <mxCell id="luhas9mJuNffGWfN3Tlp-38" value="" style="curved=1;startArrow=none;endArrow=block;exitX=1;exitY=0.75;entryX=0.5;entryY=0;rounded=0;fontFamily=Verdana;" edge="1" parent="1" source="luhas9mJuNffGWfN3Tlp-11" target="luhas9mJuNffGWfN3Tlp-15">
          <mxGeometry relative="1" as="geometry">
            <Array as="points">
              <mxPoint x="740" y="490" />
            </Array>
          </mxGeometry>
        </mxCell>
        <mxCell id="luhas9mJuNffGWfN3Tlp-39" value="" style="curved=1;startArrow=none;endArrow=block;exitX=0.5;exitY=1;entryX=0.5;entryY=0;rounded=0;fontFamily=Verdana;" edge="1" parent="1" source="luhas9mJuNffGWfN3Tlp-11" target="luhas9mJuNffGWfN3Tlp-18">
          <mxGeometry relative="1" as="geometry">
            <Array as="points" />
          </mxGeometry>
        </mxCell>
        <mxCell id="luhas9mJuNffGWfN3Tlp-40" value="" style="curved=1;startArrow=none;endArrow=block;exitX=0;exitY=0.75;entryX=0.51;entryY=0;rounded=0;fontFamily=Verdana;" edge="1" parent="1" source="luhas9mJuNffGWfN3Tlp-11" target="luhas9mJuNffGWfN3Tlp-21">
          <mxGeometry relative="1" as="geometry">
            <Array as="points">
              <mxPoint x="350" y="490" />
            </Array>
          </mxGeometry>
        </mxCell>
        <mxCell id="luhas9mJuNffGWfN3Tlp-41" value="" style="curved=1;startArrow=none;endArrow=block;exitX=0;exitY=0.63;entryX=0.5;entryY=0;rounded=0;fontFamily=Verdana;" edge="1" parent="1" source="luhas9mJuNffGWfN3Tlp-11" target="luhas9mJuNffGWfN3Tlp-24">
          <mxGeometry relative="1" as="geometry">
            <Array as="points">
              <mxPoint x="160" y="467" />
            </Array>
          </mxGeometry>
        </mxCell>
        <mxCell id="luhas9mJuNffGWfN3Tlp-42" value="" style="group;verticalAlign=top;" vertex="1" connectable="0" parent="1">
          <mxGeometry x="20" y="530" width="1010" height="250" as="geometry" />
        </mxCell>
        <mxCell id="luhas9mJuNffGWfN3Tlp-6" value="📋 Task Management App" style="whiteSpace=wrap;strokeWidth=2;fontFamily=Verdana;fillColor=#f8cecc;strokeColor=#b85450;verticalAlign=top;" vertex="1" parent="luhas9mJuNffGWfN3Tlp-42">
          <mxGeometry width="187.68" height="250" as="geometry" />
        </mxCell>
        <mxCell id="luhas9mJuNffGWfN3Tlp-7" value="👥 User Management App" style="whiteSpace=wrap;strokeWidth=2;fontFamily=Verdana;fillColor=#f8cecc;strokeColor=#b85450;verticalAlign=top;" vertex="1" parent="luhas9mJuNffGWfN3Tlp-42">
          <mxGeometry x="205.14" width="187.68" height="250" as="geometry" />
        </mxCell>
        <mxCell id="luhas9mJuNffGWfN3Tlp-8" value="⏰ Time Tracker App" style="whiteSpace=wrap;strokeWidth=2;fontFamily=Verdana;fillColor=#f8cecc;strokeColor=#b85450;verticalAlign=top;" vertex="1" parent="luhas9mJuNffGWfN3Tlp-42">
          <mxGeometry x="411.16" width="187.68" height="250" as="geometry" />
        </mxCell>
        <mxCell id="luhas9mJuNffGWfN3Tlp-9" value="📊 Analytics App" style="whiteSpace=wrap;strokeWidth=2;fontFamily=Verdana;fillColor=#f8cecc;strokeColor=#b85450;verticalAlign=top;" vertex="1" parent="luhas9mJuNffGWfN3Tlp-42">
          <mxGeometry x="616.3" width="187.68" height="250" as="geometry" />
        </mxCell>
        <mxCell id="luhas9mJuNffGWfN3Tlp-10" value="📧 Email App" style="whiteSpace=wrap;strokeWidth=2;fontFamily=Verdana;fillColor=#f8cecc;strokeColor=#b85450;verticalAlign=top;" vertex="1" parent="luhas9mJuNffGWfN3Tlp-42">
          <mxGeometry x="822.32" width="187.68" height="250" as="geometry" />
        </mxCell>
        <mxCell id="luhas9mJuNffGWfN3Tlp-12" value="🌐 Frontend" style="whiteSpace=wrap;strokeWidth=2;fontFamily=Verdana;fillColor=#dae8fc;strokeColor=#6c8ebf;" vertex="1" parent="luhas9mJuNffGWfN3Tlp-42">
          <mxGeometry x="852.8694900605012" y="33.98395770392749" width="126.5773552290406" height="36.70694864048338" as="geometry" />
        </mxCell>
        <mxCell id="luhas9mJuNffGWfN3Tlp-13" value="⚙️ Backend" style="whiteSpace=wrap;strokeWidth=2;fontFamily=Verdana;fillColor=#ffe6cc;strokeColor=#d79b00;" vertex="1" parent="luhas9mJuNffGWfN3Tlp-42">
          <mxGeometry x="854.6153846153844" y="104.67882175226586" width="123.08556611927396" height="36.70694864048338" as="geometry" />
        </mxCell>
        <mxCell id="luhas9mJuNffGWfN3Tlp-14" value="Database" style="shape=cylinder3;boundedLbl=1;backgroundOutline=1;size=10;strokeWidth=2;whiteSpace=wrap;fontFamily=Verdana;fillColor=#e1d5e7;strokeColor=#9673a6;" vertex="1" parent="luhas9mJuNffGWfN3Tlp-42">
          <mxGeometry x="872.0743301642177" y="175.3736858006042" width="88.16767502160758" height="49.622356495468274" as="geometry" />
        </mxCell>
        <mxCell id="luhas9mJuNffGWfN3Tlp-15" value="🌐 Frontend" style="whiteSpace=wrap;strokeWidth=2;fontFamily=Verdana;fillColor=#dae8fc;strokeColor=#6c8ebf;" vertex="1" parent="luhas9mJuNffGWfN3Tlp-42">
          <mxGeometry x="646.8539325842697" y="33.98395770392749" width="126.5773552290406" height="36.70694864048338" as="geometry" />
        </mxCell>
        <mxCell id="luhas9mJuNffGWfN3Tlp-16" value="⚙️ Backend" style="whiteSpace=wrap;strokeWidth=2;fontFamily=Verdana;fillColor=#ffe6cc;strokeColor=#d79b00;" vertex="1" parent="luhas9mJuNffGWfN3Tlp-42">
          <mxGeometry x="649.4727744165946" y="104.67882175226586" width="123.08556611927396" height="36.70694864048338" as="geometry" />
        </mxCell>
        <mxCell id="luhas9mJuNffGWfN3Tlp-17" value="Database" style="shape=cylinder3;boundedLbl=1;backgroundOutline=1;size=10;strokeWidth=2;whiteSpace=wrap;fontFamily=Verdana;fillColor=#e1d5e7;strokeColor=#9673a6;" vertex="1" parent="luhas9mJuNffGWfN3Tlp-42">
          <mxGeometry x="666.9317199654276" y="175.3736858006042" width="88.16767502160758" height="49.622356495468274" as="geometry" />
        </mxCell>
        <mxCell id="luhas9mJuNffGWfN3Tlp-18" value="🌐 Frontend" style="whiteSpace=wrap;strokeWidth=2;fontFamily=Verdana;fillColor=#dae8fc;strokeColor=#6c8ebf;" vertex="1" parent="luhas9mJuNffGWfN3Tlp-42">
          <mxGeometry x="441.7113223854796" y="33.98395770392749" width="126.5773552290406" height="36.70694864048338" as="geometry" />
        </mxCell>
        <mxCell id="luhas9mJuNffGWfN3Tlp-19" value="⚙️ Backend" style="whiteSpace=wrap;strokeWidth=2;fontFamily=Verdana;fillColor=#ffe6cc;strokeColor=#d79b00;" vertex="1" parent="luhas9mJuNffGWfN3Tlp-42">
          <mxGeometry x="443.45721694036297" y="104.67882175226586" width="123.08556611927396" height="36.70694864048338" as="geometry" />
        </mxCell>
        <mxCell id="luhas9mJuNffGWfN3Tlp-20" value="Database" style="shape=cylinder3;boundedLbl=1;backgroundOutline=1;size=10;strokeWidth=2;whiteSpace=wrap;fontFamily=Verdana;fillColor=#e1d5e7;strokeColor=#9673a6;" vertex="1" parent="luhas9mJuNffGWfN3Tlp-42">
          <mxGeometry x="460.91616248919615" y="175.3736858006042" width="88.16767502160758" height="49.622356495468274" as="geometry" />
        </mxCell>
        <mxCell id="luhas9mJuNffGWfN3Tlp-21" value="🌐 Frontend" style="whiteSpace=wrap;strokeWidth=2;fontFamily=Verdana;fillColor=#dae8fc;strokeColor=#6c8ebf;" vertex="1" parent="luhas9mJuNffGWfN3Tlp-42">
          <mxGeometry x="235.695764909248" y="33.98395770392749" width="126.5773552290406" height="36.70694864048338" as="geometry" />
        </mxCell>
        <mxCell id="luhas9mJuNffGWfN3Tlp-22" value="⚙️ Backend" style="whiteSpace=wrap;strokeWidth=2;fontFamily=Verdana;fillColor=#ffe6cc;strokeColor=#d79b00;" vertex="1" parent="luhas9mJuNffGWfN3Tlp-42">
          <mxGeometry x="238.31460674157302" y="104.67882175226586" width="123.08556611927396" height="36.70694864048338" as="geometry" />
        </mxCell>
        <mxCell id="luhas9mJuNffGWfN3Tlp-23" value="Database" style="shape=cylinder3;boundedLbl=1;backgroundOutline=1;size=10;strokeWidth=2;whiteSpace=wrap;fontFamily=Verdana;fillColor=#e1d5e7;strokeColor=#9673a6;" vertex="1" parent="luhas9mJuNffGWfN3Tlp-42">
          <mxGeometry x="255.77355229040617" y="175.3736858006042" width="88.16767502160758" height="49.622356495468274" as="geometry" />
        </mxCell>
        <mxCell id="luhas9mJuNffGWfN3Tlp-24" value="🌐 Frontend" style="whiteSpace=wrap;strokeWidth=2;fontFamily=Verdana;fillColor=#dae8fc;strokeColor=#6c8ebf;" vertex="1" parent="luhas9mJuNffGWfN3Tlp-42">
          <mxGeometry x="30.553154710458077" y="33.98395770392749" width="126.5773552290406" height="36.70694864048338" as="geometry" />
        </mxCell>
        <mxCell id="luhas9mJuNffGWfN3Tlp-25" value="⚙️ Backend" style="whiteSpace=wrap;strokeWidth=2;fontFamily=Verdana;fillColor=#ffe6cc;strokeColor=#d79b00;" vertex="1" parent="luhas9mJuNffGWfN3Tlp-42">
          <mxGeometry x="32.299049265341395" y="104.67882175226586" width="123.08556611927396" height="36.70694864048338" as="geometry" />
        </mxCell>
        <mxCell id="luhas9mJuNffGWfN3Tlp-26" value="Database" style="shape=cylinder3;boundedLbl=1;backgroundOutline=1;size=10;strokeWidth=2;whiteSpace=wrap;fontFamily=Verdana;fillColor=#e1d5e7;strokeColor=#9673a6;" vertex="1" parent="luhas9mJuNffGWfN3Tlp-42">
          <mxGeometry x="49.75799481417459" y="175.3736858006042" width="88.16767502160758" height="49.622356495468274" as="geometry" />
        </mxCell>
        <mxCell id="luhas9mJuNffGWfN3Tlp-27" value="" style="curved=1;startArrow=none;endArrow=block;exitX=0.5;exitY=1;entryX=0.5;entryY=0;rounded=0;fontFamily=Verdana;" edge="1" parent="luhas9mJuNffGWfN3Tlp-42" source="luhas9mJuNffGWfN3Tlp-12" target="luhas9mJuNffGWfN3Tlp-13">
          <mxGeometry relative="1" as="geometry">
            <Array as="points" />
          </mxGeometry>
        </mxCell>
        <mxCell id="luhas9mJuNffGWfN3Tlp-28" value="" style="curved=1;startArrow=none;endArrow=block;exitX=0.5;exitY=1;entryX=0.5;entryY=0;rounded=0;fontFamily=Verdana;" edge="1" parent="luhas9mJuNffGWfN3Tlp-42" source="luhas9mJuNffGWfN3Tlp-13" target="luhas9mJuNffGWfN3Tlp-14">
          <mxGeometry relative="1" as="geometry">
            <Array as="points" />
          </mxGeometry>
        </mxCell>
        <mxCell id="luhas9mJuNffGWfN3Tlp-29" value="" style="curved=1;startArrow=none;endArrow=block;exitX=0.5;exitY=1;entryX=0.5;entryY=0;rounded=0;fontFamily=Verdana;" edge="1" parent="luhas9mJuNffGWfN3Tlp-42" source="luhas9mJuNffGWfN3Tlp-15" target="luhas9mJuNffGWfN3Tlp-16">
          <mxGeometry relative="1" as="geometry">
            <Array as="points" />
          </mxGeometry>
        </mxCell>
        <mxCell id="luhas9mJuNffGWfN3Tlp-30" value="" style="curved=1;startArrow=none;endArrow=block;exitX=0.5;exitY=1;entryX=0.5;entryY=0;rounded=0;fontFamily=Verdana;" edge="1" parent="luhas9mJuNffGWfN3Tlp-42" source="luhas9mJuNffGWfN3Tlp-16" target="luhas9mJuNffGWfN3Tlp-17">
          <mxGeometry relative="1" as="geometry">
            <Array as="points" />
          </mxGeometry>
        </mxCell>
        <mxCell id="luhas9mJuNffGWfN3Tlp-31" value="" style="curved=1;startArrow=none;endArrow=block;exitX=0.5;exitY=1;entryX=0.5;entryY=0;rounded=0;fontFamily=Verdana;" edge="1" parent="luhas9mJuNffGWfN3Tlp-42" source="luhas9mJuNffGWfN3Tlp-18" target="luhas9mJuNffGWfN3Tlp-19">
          <mxGeometry relative="1" as="geometry">
            <Array as="points" />
          </mxGeometry>
        </mxCell>
        <mxCell id="luhas9mJuNffGWfN3Tlp-32" value="" style="curved=1;startArrow=none;endArrow=block;exitX=0.5;exitY=1;entryX=0.5;entryY=0;rounded=0;fontFamily=Verdana;" edge="1" parent="luhas9mJuNffGWfN3Tlp-42" source="luhas9mJuNffGWfN3Tlp-19" target="luhas9mJuNffGWfN3Tlp-20">
          <mxGeometry relative="1" as="geometry">
            <Array as="points" />
          </mxGeometry>
        </mxCell>
        <mxCell id="luhas9mJuNffGWfN3Tlp-33" value="" style="curved=1;startArrow=none;endArrow=block;exitX=0.51;exitY=1;entryX=0.5;entryY=0;rounded=0;fontFamily=Verdana;" edge="1" parent="luhas9mJuNffGWfN3Tlp-42" source="luhas9mJuNffGWfN3Tlp-21" target="luhas9mJuNffGWfN3Tlp-22">
          <mxGeometry relative="1" as="geometry">
            <Array as="points" />
          </mxGeometry>
        </mxCell>
        <mxCell id="luhas9mJuNffGWfN3Tlp-34" value="" style="curved=1;startArrow=none;endArrow=block;exitX=0.5;exitY=1;entryX=0.5;entryY=0;rounded=0;fontFamily=Verdana;" edge="1" parent="luhas9mJuNffGWfN3Tlp-42" source="luhas9mJuNffGWfN3Tlp-22" target="luhas9mJuNffGWfN3Tlp-23">
          <mxGeometry relative="1" as="geometry">
            <Array as="points" />
          </mxGeometry>
        </mxCell>
        <mxCell id="luhas9mJuNffGWfN3Tlp-35" value="" style="curved=1;startArrow=none;endArrow=block;exitX=0.5;exitY=1;entryX=0.5;entryY=0;rounded=0;fontFamily=Verdana;" edge="1" parent="luhas9mJuNffGWfN3Tlp-42" source="luhas9mJuNffGWfN3Tlp-24" target="luhas9mJuNffGWfN3Tlp-25">
          <mxGeometry relative="1" as="geometry">
            <Array as="points" />
          </mxGeometry>
        </mxCell>
        <mxCell id="luhas9mJuNffGWfN3Tlp-36" value="" style="curved=1;startArrow=none;endArrow=block;exitX=0.5;exitY=1;entryX=0.5;entryY=0;rounded=0;fontFamily=Verdana;" edge="1" parent="luhas9mJuNffGWfN3Tlp-42" source="luhas9mJuNffGWfN3Tlp-25" target="luhas9mJuNffGWfN3Tlp-26">
          <mxGeometry relative="1" as="geometry">
            <Array as="points" />
          </mxGeometry>
        </mxCell>
        <mxCell id="luhas9mJuNffGWfN3Tlp-43" value="API Gateway" style="whiteSpace=wrap;strokeWidth=2;fontFamily=Verdana;fillColor=#ffe6cc;strokeColor=#d79b00;" vertex="1" parent="1">
          <mxGeometry x="452" y="990" width="123" height="54" as="geometry" />
        </mxCell>
        <mxCell id="luhas9mJuNffGWfN3Tlp-44" value="" style="curved=1;startArrow=none;endArrow=block;exitX=1;exitY=0.63;entryX=0.5;entryY=0;rounded=0;fontFamily=Verdana;" edge="1" source="luhas9mJuNffGWfN3Tlp-43" target="luhas9mJuNffGWfN3Tlp-55" parent="1">
          <mxGeometry relative="1" as="geometry">
            <Array as="points">
              <mxPoint x="930" y="1040" />
            </Array>
          </mxGeometry>
        </mxCell>
        <mxCell id="luhas9mJuNffGWfN3Tlp-45" value="" style="curved=1;startArrow=none;endArrow=block;exitX=1;exitY=0.75;entryX=0.5;entryY=0;rounded=0;fontFamily=Verdana;" edge="1" source="luhas9mJuNffGWfN3Tlp-43" target="luhas9mJuNffGWfN3Tlp-58" parent="1">
          <mxGeometry relative="1" as="geometry">
            <Array as="points">
              <mxPoint x="730" y="1040" />
            </Array>
          </mxGeometry>
        </mxCell>
        <mxCell id="luhas9mJuNffGWfN3Tlp-46" value="" style="curved=1;startArrow=none;endArrow=block;exitX=0.5;exitY=1;entryX=0.5;entryY=0;rounded=0;fontFamily=Verdana;" edge="1" source="luhas9mJuNffGWfN3Tlp-43" target="luhas9mJuNffGWfN3Tlp-61" parent="1">
          <mxGeometry relative="1" as="geometry">
            <Array as="points" />
          </mxGeometry>
        </mxCell>
        <mxCell id="luhas9mJuNffGWfN3Tlp-47" value="" style="curved=1;startArrow=none;endArrow=block;exitX=0;exitY=0.75;entryX=0.51;entryY=0;rounded=0;fontFamily=Verdana;" edge="1" source="luhas9mJuNffGWfN3Tlp-43" target="luhas9mJuNffGWfN3Tlp-64" parent="1">
          <mxGeometry relative="1" as="geometry">
            <Array as="points">
              <mxPoint x="340" y="1040" />
            </Array>
          </mxGeometry>
        </mxCell>
        <mxCell id="luhas9mJuNffGWfN3Tlp-48" value="" style="curved=1;startArrow=none;endArrow=block;exitX=0;exitY=0.63;entryX=0.5;entryY=0;rounded=0;fontFamily=Verdana;" edge="1" source="luhas9mJuNffGWfN3Tlp-43" target="luhas9mJuNffGWfN3Tlp-67" parent="1">
          <mxGeometry relative="1" as="geometry">
            <Array as="points">
              <mxPoint x="150" y="1017" />
            </Array>
          </mxGeometry>
        </mxCell>
        <mxCell id="luhas9mJuNffGWfN3Tlp-49" value="" style="group;verticalAlign=top;" vertex="1" connectable="0" parent="1">
          <mxGeometry x="10" y="1080" width="1010" height="250" as="geometry" />
        </mxCell>
        <mxCell id="luhas9mJuNffGWfN3Tlp-50" value="📋 Task Management App" style="whiteSpace=wrap;strokeWidth=2;fontFamily=Verdana;fillColor=#f8cecc;strokeColor=#b85450;verticalAlign=top;" vertex="1" parent="luhas9mJuNffGWfN3Tlp-49">
          <mxGeometry width="187.68" height="250" as="geometry" />
        </mxCell>
        <mxCell id="luhas9mJuNffGWfN3Tlp-51" value="👥 User Management App" style="whiteSpace=wrap;strokeWidth=2;fontFamily=Verdana;fillColor=#f8cecc;strokeColor=#b85450;verticalAlign=top;" vertex="1" parent="luhas9mJuNffGWfN3Tlp-49">
          <mxGeometry x="205.14" width="187.68" height="250" as="geometry" />
        </mxCell>
        <mxCell id="luhas9mJuNffGWfN3Tlp-52" value="⏰ Time Tracker App" style="whiteSpace=wrap;strokeWidth=2;fontFamily=Verdana;fillColor=#f8cecc;strokeColor=#b85450;verticalAlign=top;" vertex="1" parent="luhas9mJuNffGWfN3Tlp-49">
          <mxGeometry x="411.16" width="187.68" height="250" as="geometry" />
        </mxCell>
        <mxCell id="luhas9mJuNffGWfN3Tlp-53" value="📊 Analytics App" style="whiteSpace=wrap;strokeWidth=2;fontFamily=Verdana;fillColor=#f8cecc;strokeColor=#b85450;verticalAlign=top;" vertex="1" parent="luhas9mJuNffGWfN3Tlp-49">
          <mxGeometry x="616.3" width="187.68" height="250" as="geometry" />
        </mxCell>
        <mxCell id="luhas9mJuNffGWfN3Tlp-54" value="📧 Email App" style="whiteSpace=wrap;strokeWidth=2;fontFamily=Verdana;fillColor=#f8cecc;strokeColor=#b85450;verticalAlign=top;" vertex="1" parent="luhas9mJuNffGWfN3Tlp-49">
          <mxGeometry x="822.32" width="187.68" height="250" as="geometry" />
        </mxCell>
        <mxCell id="luhas9mJuNffGWfN3Tlp-55" value="🔗 REST API" style="whiteSpace=wrap;strokeWidth=2;fontFamily=Verdana;fillColor=#ffe6cc;strokeColor=#d79b00;" vertex="1" parent="luhas9mJuNffGWfN3Tlp-49">
          <mxGeometry x="852.8694900605012" y="33.98395770392749" width="126.5773552290406" height="36.70694864048338" as="geometry" />
        </mxCell>
        <mxCell id="luhas9mJuNffGWfN3Tlp-56" value="⚙️ Backend" style="whiteSpace=wrap;strokeWidth=2;fontFamily=Verdana;fillColor=#ffe6cc;strokeColor=#d79b00;" vertex="1" parent="luhas9mJuNffGWfN3Tlp-49">
          <mxGeometry x="854.6153846153844" y="104.67882175226586" width="123.08556611927396" height="36.70694864048338" as="geometry" />
        </mxCell>
        <mxCell id="luhas9mJuNffGWfN3Tlp-57" value="Database" style="shape=cylinder3;boundedLbl=1;backgroundOutline=1;size=10;strokeWidth=2;whiteSpace=wrap;fontFamily=Verdana;fillColor=#e1d5e7;strokeColor=#9673a6;" vertex="1" parent="luhas9mJuNffGWfN3Tlp-49">
          <mxGeometry x="872.0743301642177" y="175.3736858006042" width="88.16767502160758" height="49.622356495468274" as="geometry" />
        </mxCell>
        <mxCell id="luhas9mJuNffGWfN3Tlp-58" value="🔗 REST API" style="whiteSpace=wrap;strokeWidth=2;fontFamily=Verdana;fillColor=#ffe6cc;strokeColor=#d79b00;" vertex="1" parent="luhas9mJuNffGWfN3Tlp-49">
          <mxGeometry x="646.8539325842697" y="33.98395770392749" width="126.5773552290406" height="36.70694864048338" as="geometry" />
        </mxCell>
        <mxCell id="luhas9mJuNffGWfN3Tlp-59" value="⚙️ Backend" style="whiteSpace=wrap;strokeWidth=2;fontFamily=Verdana;fillColor=#ffe6cc;strokeColor=#d79b00;" vertex="1" parent="luhas9mJuNffGWfN3Tlp-49">
          <mxGeometry x="649.4727744165946" y="104.67882175226586" width="123.08556611927396" height="36.70694864048338" as="geometry" />
        </mxCell>
        <mxCell id="luhas9mJuNffGWfN3Tlp-60" value="Database" style="shape=cylinder3;boundedLbl=1;backgroundOutline=1;size=10;strokeWidth=2;whiteSpace=wrap;fontFamily=Verdana;fillColor=#e1d5e7;strokeColor=#9673a6;" vertex="1" parent="luhas9mJuNffGWfN3Tlp-49">
          <mxGeometry x="666.9317199654276" y="175.3736858006042" width="88.16767502160758" height="49.622356495468274" as="geometry" />
        </mxCell>
        <mxCell id="luhas9mJuNffGWfN3Tlp-61" value="🔗 REST API" style="whiteSpace=wrap;strokeWidth=2;fontFamily=Verdana;fillColor=#ffe6cc;strokeColor=#d79b00;" vertex="1" parent="luhas9mJuNffGWfN3Tlp-49">
          <mxGeometry x="441.7113223854796" y="33.98395770392749" width="126.5773552290406" height="36.70694864048338" as="geometry" />
        </mxCell>
        <mxCell id="luhas9mJuNffGWfN3Tlp-62" value="⚙️ Backend" style="whiteSpace=wrap;strokeWidth=2;fontFamily=Verdana;fillColor=#ffe6cc;strokeColor=#d79b00;" vertex="1" parent="luhas9mJuNffGWfN3Tlp-49">
          <mxGeometry x="443.45721694036297" y="104.67882175226586" width="123.08556611927396" height="36.70694864048338" as="geometry" />
        </mxCell>
        <mxCell id="luhas9mJuNffGWfN3Tlp-63" value="Database" style="shape=cylinder3;boundedLbl=1;backgroundOutline=1;size=10;strokeWidth=2;whiteSpace=wrap;fontFamily=Verdana;fillColor=#e1d5e7;strokeColor=#9673a6;" vertex="1" parent="luhas9mJuNffGWfN3Tlp-49">
          <mxGeometry x="460.91616248919615" y="175.3736858006042" width="88.16767502160758" height="49.622356495468274" as="geometry" />
        </mxCell>
        <mxCell id="luhas9mJuNffGWfN3Tlp-64" value="🔗 REST API" style="whiteSpace=wrap;strokeWidth=2;fontFamily=Verdana;fillColor=#ffe6cc;strokeColor=#d79b00;" vertex="1" parent="luhas9mJuNffGWfN3Tlp-49">
          <mxGeometry x="235.695764909248" y="33.98395770392749" width="126.5773552290406" height="36.70694864048338" as="geometry" />
        </mxCell>
        <mxCell id="luhas9mJuNffGWfN3Tlp-65" value="⚙️ Backend" style="whiteSpace=wrap;strokeWidth=2;fontFamily=Verdana;fillColor=#ffe6cc;strokeColor=#d79b00;" vertex="1" parent="luhas9mJuNffGWfN3Tlp-49">
          <mxGeometry x="238.31460674157302" y="104.67882175226586" width="123.08556611927396" height="36.70694864048338" as="geometry" />
        </mxCell>
        <mxCell id="luhas9mJuNffGWfN3Tlp-66" value="Database" style="shape=cylinder3;boundedLbl=1;backgroundOutline=1;size=10;strokeWidth=2;whiteSpace=wrap;fontFamily=Verdana;fillColor=#e1d5e7;strokeColor=#9673a6;" vertex="1" parent="luhas9mJuNffGWfN3Tlp-49">
          <mxGeometry x="255.77355229040617" y="175.3736858006042" width="88.16767502160758" height="49.622356495468274" as="geometry" />
        </mxCell>
        <mxCell id="luhas9mJuNffGWfN3Tlp-67" value="🔗 REST API" style="whiteSpace=wrap;strokeWidth=2;fontFamily=Verdana;fillColor=#ffe6cc;strokeColor=#d79b00;fontSize=11;" vertex="1" parent="luhas9mJuNffGWfN3Tlp-49">
          <mxGeometry x="30.553154710458077" y="33.98395770392749" width="126.5773552290406" height="36.70694864048338" as="geometry" />
        </mxCell>
        <mxCell id="luhas9mJuNffGWfN3Tlp-68" value="⚙️ Backend" style="whiteSpace=wrap;strokeWidth=2;fontFamily=Verdana;fillColor=#ffe6cc;strokeColor=#d79b00;" vertex="1" parent="luhas9mJuNffGWfN3Tlp-49">
          <mxGeometry x="32.299049265341395" y="104.67882175226586" width="123.08556611927396" height="36.70694864048338" as="geometry" />
        </mxCell>
        <mxCell id="luhas9mJuNffGWfN3Tlp-69" value="Database" style="shape=cylinder3;boundedLbl=1;backgroundOutline=1;size=10;strokeWidth=2;whiteSpace=wrap;fontFamily=Verdana;fillColor=#e1d5e7;strokeColor=#9673a6;" vertex="1" parent="luhas9mJuNffGWfN3Tlp-49">
          <mxGeometry x="49.75799481417459" y="175.3736858006042" width="88.16767502160758" height="49.622356495468274" as="geometry" />
        </mxCell>
        <mxCell id="luhas9mJuNffGWfN3Tlp-70" value="" style="curved=1;startArrow=none;endArrow=block;exitX=0.5;exitY=1;entryX=0.5;entryY=0;rounded=0;fontFamily=Verdana;" edge="1" parent="luhas9mJuNffGWfN3Tlp-49" source="luhas9mJuNffGWfN3Tlp-55" target="luhas9mJuNffGWfN3Tlp-56">
          <mxGeometry relative="1" as="geometry">
            <Array as="points" />
          </mxGeometry>
        </mxCell>
        <mxCell id="luhas9mJuNffGWfN3Tlp-71" value="" style="curved=1;startArrow=none;endArrow=block;exitX=0.5;exitY=1;entryX=0.5;entryY=0;rounded=0;fontFamily=Verdana;" edge="1" parent="luhas9mJuNffGWfN3Tlp-49" source="luhas9mJuNffGWfN3Tlp-56" target="luhas9mJuNffGWfN3Tlp-57">
          <mxGeometry relative="1" as="geometry">
            <Array as="points" />
          </mxGeometry>
        </mxCell>
        <mxCell id="luhas9mJuNffGWfN3Tlp-72" value="" style="curved=1;startArrow=none;endArrow=block;exitX=0.5;exitY=1;entryX=0.5;entryY=0;rounded=0;fontFamily=Verdana;" edge="1" parent="luhas9mJuNffGWfN3Tlp-49" source="luhas9mJuNffGWfN3Tlp-58" target="luhas9mJuNffGWfN3Tlp-59">
          <mxGeometry relative="1" as="geometry">
            <Array as="points" />
          </mxGeometry>
        </mxCell>
        <mxCell id="luhas9mJuNffGWfN3Tlp-73" value="" style="curved=1;startArrow=none;endArrow=block;exitX=0.5;exitY=1;entryX=0.5;entryY=0;rounded=0;fontFamily=Verdana;" edge="1" parent="luhas9mJuNffGWfN3Tlp-49" source="luhas9mJuNffGWfN3Tlp-59" target="luhas9mJuNffGWfN3Tlp-60">
          <mxGeometry relative="1" as="geometry">
            <Array as="points" />
          </mxGeometry>
        </mxCell>
        <mxCell id="luhas9mJuNffGWfN3Tlp-74" value="" style="curved=1;startArrow=none;endArrow=block;exitX=0.5;exitY=1;entryX=0.5;entryY=0;rounded=0;fontFamily=Verdana;" edge="1" parent="luhas9mJuNffGWfN3Tlp-49" source="luhas9mJuNffGWfN3Tlp-61" target="luhas9mJuNffGWfN3Tlp-62">
          <mxGeometry relative="1" as="geometry">
            <Array as="points" />
          </mxGeometry>
        </mxCell>
        <mxCell id="luhas9mJuNffGWfN3Tlp-75" value="" style="curved=1;startArrow=none;endArrow=block;exitX=0.5;exitY=1;entryX=0.5;entryY=0;rounded=0;fontFamily=Verdana;" edge="1" parent="luhas9mJuNffGWfN3Tlp-49" source="luhas9mJuNffGWfN3Tlp-62" target="luhas9mJuNffGWfN3Tlp-63">
          <mxGeometry relative="1" as="geometry">
            <Array as="points" />
          </mxGeometry>
        </mxCell>
        <mxCell id="luhas9mJuNffGWfN3Tlp-76" value="" style="curved=1;startArrow=none;endArrow=block;exitX=0.51;exitY=1;entryX=0.5;entryY=0;rounded=0;fontFamily=Verdana;" edge="1" parent="luhas9mJuNffGWfN3Tlp-49" source="luhas9mJuNffGWfN3Tlp-64" target="luhas9mJuNffGWfN3Tlp-65">
          <mxGeometry relative="1" as="geometry">
            <Array as="points" />
          </mxGeometry>
        </mxCell>
        <mxCell id="luhas9mJuNffGWfN3Tlp-77" value="" style="curved=1;startArrow=none;endArrow=block;exitX=0.5;exitY=1;entryX=0.5;entryY=0;rounded=0;fontFamily=Verdana;" edge="1" parent="luhas9mJuNffGWfN3Tlp-49" source="luhas9mJuNffGWfN3Tlp-65" target="luhas9mJuNffGWfN3Tlp-66">
          <mxGeometry relative="1" as="geometry">
            <Array as="points" />
          </mxGeometry>
        </mxCell>
        <mxCell id="luhas9mJuNffGWfN3Tlp-78" value="" style="curved=1;startArrow=none;endArrow=block;exitX=0.5;exitY=1;entryX=0.5;entryY=0;rounded=0;fontFamily=Verdana;" edge="1" parent="luhas9mJuNffGWfN3Tlp-49" source="luhas9mJuNffGWfN3Tlp-67" target="luhas9mJuNffGWfN3Tlp-68">
          <mxGeometry relative="1" as="geometry">
            <Array as="points" />
          </mxGeometry>
        </mxCell>
        <mxCell id="luhas9mJuNffGWfN3Tlp-79" value="" style="curved=1;startArrow=none;endArrow=block;exitX=0.5;exitY=1;entryX=0.5;entryY=0;rounded=0;fontFamily=Verdana;" edge="1" parent="luhas9mJuNffGWfN3Tlp-49" source="luhas9mJuNffGWfN3Tlp-68" target="luhas9mJuNffGWfN3Tlp-69">
          <mxGeometry relative="1" as="geometry">
            <Array as="points" />
          </mxGeometry>
        </mxCell>
        <mxCell id="luhas9mJuNffGWfN3Tlp-80" value="🌐 Frontend" style="whiteSpace=wrap;strokeWidth=2;fontFamily=Verdana;fontSize=14;fillColor=#dae8fc;strokeColor=#6c8ebf;" vertex="1" parent="1">
          <mxGeometry x="449.75" y="910" width="127.5" height="44" as="geometry" />
        </mxCell>
        <mxCell id="luhas9mJuNffGWfN3Tlp-81" value="" style="endArrow=classic;html=1;rounded=0;exitX=0.5;exitY=1;exitDx=0;exitDy=0;entryX=0.5;entryY=0;entryDx=0;entryDy=0;" edge="1" parent="1" source="luhas9mJuNffGWfN3Tlp-80" target="luhas9mJuNffGWfN3Tlp-43">
          <mxGeometry width="50" height="50" relative="1" as="geometry">
            <mxPoint x="540" y="1040" as="sourcePoint" />
            <mxPoint x="590" y="990" as="targetPoint" />
          </mxGeometry>
        </mxCell>
        <mxCell id="luhas9mJuNffGWfN3Tlp-89" value="" style="group;verticalAlign=top;" vertex="1" connectable="0" parent="1">
          <mxGeometry x="22" y="1851.97" width="1010" height="250" as="geometry" />
        </mxCell>
        <mxCell id="luhas9mJuNffGWfN3Tlp-90" value="📋 Task Management App" style="whiteSpace=wrap;strokeWidth=2;fontFamily=Verdana;fillColor=#f8cecc;strokeColor=#b85450;verticalAlign=top;" vertex="1" parent="luhas9mJuNffGWfN3Tlp-89">
          <mxGeometry width="187.68" height="250" as="geometry" />
        </mxCell>
        <mxCell id="luhas9mJuNffGWfN3Tlp-91" value="👥 User Management App" style="whiteSpace=wrap;strokeWidth=2;fontFamily=Verdana;fillColor=#f8cecc;strokeColor=#b85450;verticalAlign=top;" vertex="1" parent="luhas9mJuNffGWfN3Tlp-89">
          <mxGeometry x="205.14" width="187.68" height="180" as="geometry" />
        </mxCell>
        <mxCell id="luhas9mJuNffGWfN3Tlp-92" value="⏰ Time Tracker App" style="whiteSpace=wrap;strokeWidth=2;fontFamily=Verdana;fillColor=#f8cecc;strokeColor=#b85450;verticalAlign=top;" vertex="1" parent="luhas9mJuNffGWfN3Tlp-89">
          <mxGeometry x="411.16" width="187.68" height="250" as="geometry" />
        </mxCell>
        <mxCell id="luhas9mJuNffGWfN3Tlp-93" value="📊 Analytics App" style="whiteSpace=wrap;strokeWidth=2;fontFamily=Verdana;fillColor=#f8cecc;strokeColor=#b85450;verticalAlign=top;" vertex="1" parent="luhas9mJuNffGWfN3Tlp-89">
          <mxGeometry x="616.3" width="187.68" height="170" as="geometry" />
        </mxCell>
        <mxCell id="luhas9mJuNffGWfN3Tlp-94" value="📧 Email App" style="whiteSpace=wrap;strokeWidth=2;fontFamily=Verdana;fillColor=#f8cecc;strokeColor=#b85450;verticalAlign=top;" vertex="1" parent="luhas9mJuNffGWfN3Tlp-89">
          <mxGeometry x="822.32" width="187.68" height="250" as="geometry" />
        </mxCell>
        <mxCell id="luhas9mJuNffGWfN3Tlp-95" value="🔗 Context" style="whiteSpace=wrap;strokeWidth=2;fontFamily=Verdana;fillColor=#ffe6cc;strokeColor=#d79b00;" vertex="1" parent="luhas9mJuNffGWfN3Tlp-89">
          <mxGeometry x="852.8694900605012" y="33.98395770392749" width="126.5773552290406" height="36.70694864048338" as="geometry" />
        </mxCell>
        <mxCell id="luhas9mJuNffGWfN3Tlp-96" value="⚙️ Backend" style="whiteSpace=wrap;strokeWidth=2;fontFamily=Verdana;fillColor=#ffe6cc;strokeColor=#d79b00;" vertex="1" parent="luhas9mJuNffGWfN3Tlp-89">
          <mxGeometry x="854.6153846153844" y="104.67882175226586" width="123.08556611927396" height="36.70694864048338" as="geometry" />
        </mxCell>
        <mxCell id="luhas9mJuNffGWfN3Tlp-97" value="Database" style="shape=cylinder3;boundedLbl=1;backgroundOutline=1;size=10;strokeWidth=2;whiteSpace=wrap;fontFamily=Verdana;fillColor=#e1d5e7;strokeColor=#9673a6;" vertex="1" parent="luhas9mJuNffGWfN3Tlp-89">
          <mxGeometry x="872.0743301642177" y="175.3736858006042" width="88.16767502160758" height="49.622356495468274" as="geometry" />
        </mxCell>
        <mxCell id="luhas9mJuNffGWfN3Tlp-98" value="🔗 Context" style="whiteSpace=wrap;strokeWidth=2;fontFamily=Verdana;fillColor=#ffe6cc;strokeColor=#d79b00;" vertex="1" parent="luhas9mJuNffGWfN3Tlp-89">
          <mxGeometry x="646.8539325842697" y="33.98395770392749" width="126.5773552290406" height="36.70694864048338" as="geometry" />
        </mxCell>
        <mxCell id="luhas9mJuNffGWfN3Tlp-99" value="⚙️ Backend" style="whiteSpace=wrap;strokeWidth=2;fontFamily=Verdana;fillColor=#ffe6cc;strokeColor=#d79b00;" vertex="1" parent="luhas9mJuNffGWfN3Tlp-89">
          <mxGeometry x="649.4727744165946" y="104.67882175226586" width="123.08556611927396" height="36.70694864048338" as="geometry" />
        </mxCell>
        <mxCell id="luhas9mJuNffGWfN3Tlp-101" value="🔗 Context" style="whiteSpace=wrap;strokeWidth=2;fontFamily=Verdana;fillColor=#ffe6cc;strokeColor=#d79b00;" vertex="1" parent="luhas9mJuNffGWfN3Tlp-89">
          <mxGeometry x="441.7113223854796" y="33.98395770392749" width="126.5773552290406" height="36.70694864048338" as="geometry" />
        </mxCell>
        <mxCell id="luhas9mJuNffGWfN3Tlp-102" value="⚙️ Backend" style="whiteSpace=wrap;strokeWidth=2;fontFamily=Verdana;fillColor=#ffe6cc;strokeColor=#d79b00;" vertex="1" parent="luhas9mJuNffGWfN3Tlp-89">
          <mxGeometry x="443.45721694036297" y="104.67882175226586" width="123.08556611927396" height="36.70694864048338" as="geometry" />
        </mxCell>
        <mxCell id="luhas9mJuNffGWfN3Tlp-103" value="Database" style="shape=cylinder3;boundedLbl=1;backgroundOutline=1;size=10;strokeWidth=2;whiteSpace=wrap;fontFamily=Verdana;fillColor=#e1d5e7;strokeColor=#9673a6;" vertex="1" parent="luhas9mJuNffGWfN3Tlp-89">
          <mxGeometry x="460.91616248919615" y="175.3736858006042" width="88.16767502160758" height="49.622356495468274" as="geometry" />
        </mxCell>
        <mxCell id="luhas9mJuNffGWfN3Tlp-105" value="⚙️ Backend" style="whiteSpace=wrap;strokeWidth=2;fontFamily=Verdana;fillColor=#ffe6cc;strokeColor=#d79b00;" vertex="1" parent="luhas9mJuNffGWfN3Tlp-89">
          <mxGeometry x="237.43460674157302" y="33.98882175226586" width="123.08556611927396" height="36.70694864048338" as="geometry" />
        </mxCell>
        <mxCell id="luhas9mJuNffGWfN3Tlp-106" value="Database" style="shape=cylinder3;boundedLbl=1;backgroundOutline=1;size=10;strokeWidth=2;whiteSpace=wrap;fontFamily=Verdana;fillColor=#e1d5e7;strokeColor=#9673a6;" vertex="1" parent="luhas9mJuNffGWfN3Tlp-89">
          <mxGeometry x="254.89355229040618" y="104.6836858006042" width="88.16767502160758" height="49.622356495468274" as="geometry" />
        </mxCell>
        <mxCell id="luhas9mJuNffGWfN3Tlp-107" value="🔗 Context" style="whiteSpace=wrap;strokeWidth=2;fontFamily=Verdana;fillColor=#ffe6cc;strokeColor=#d79b00;fontSize=11;" vertex="1" parent="luhas9mJuNffGWfN3Tlp-89">
          <mxGeometry x="30.553154710458077" y="33.98395770392749" width="126.5773552290406" height="36.70694864048338" as="geometry" />
        </mxCell>
        <mxCell id="luhas9mJuNffGWfN3Tlp-108" value="⚙️ Backend" style="whiteSpace=wrap;strokeWidth=2;fontFamily=Verdana;fillColor=#ffe6cc;strokeColor=#d79b00;" vertex="1" parent="luhas9mJuNffGWfN3Tlp-89">
          <mxGeometry x="32.299049265341395" y="104.67882175226586" width="123.08556611927396" height="36.70694864048338" as="geometry" />
        </mxCell>
        <mxCell id="luhas9mJuNffGWfN3Tlp-109" value="Database" style="shape=cylinder3;boundedLbl=1;backgroundOutline=1;size=10;strokeWidth=2;whiteSpace=wrap;fontFamily=Verdana;fillColor=#e1d5e7;strokeColor=#9673a6;" vertex="1" parent="luhas9mJuNffGWfN3Tlp-89">
          <mxGeometry x="49.75799481417459" y="175.3736858006042" width="88.16767502160758" height="49.622356495468274" as="geometry" />
        </mxCell>
        <mxCell id="luhas9mJuNffGWfN3Tlp-110" value="" style="curved=1;startArrow=none;endArrow=block;exitX=0.5;exitY=1;entryX=0.5;entryY=0;rounded=0;fontFamily=Verdana;" edge="1" parent="luhas9mJuNffGWfN3Tlp-89" source="luhas9mJuNffGWfN3Tlp-95" target="luhas9mJuNffGWfN3Tlp-96">
          <mxGeometry relative="1" as="geometry">
            <Array as="points" />
          </mxGeometry>
        </mxCell>
        <mxCell id="luhas9mJuNffGWfN3Tlp-111" value="" style="curved=1;startArrow=none;endArrow=block;exitX=0.5;exitY=1;entryX=0.5;entryY=0;rounded=0;fontFamily=Verdana;" edge="1" parent="luhas9mJuNffGWfN3Tlp-89" source="luhas9mJuNffGWfN3Tlp-96" target="luhas9mJuNffGWfN3Tlp-97">
          <mxGeometry relative="1" as="geometry">
            <Array as="points" />
          </mxGeometry>
        </mxCell>
        <mxCell id="luhas9mJuNffGWfN3Tlp-112" value="" style="curved=1;startArrow=none;endArrow=block;exitX=0.5;exitY=1;entryX=0.5;entryY=0;rounded=0;fontFamily=Verdana;" edge="1" parent="luhas9mJuNffGWfN3Tlp-89" source="luhas9mJuNffGWfN3Tlp-98" target="luhas9mJuNffGWfN3Tlp-99">
          <mxGeometry relative="1" as="geometry">
            <Array as="points" />
          </mxGeometry>
        </mxCell>
        <mxCell id="luhas9mJuNffGWfN3Tlp-114" value="" style="curved=1;startArrow=none;endArrow=block;exitX=0.5;exitY=1;entryX=0.5;entryY=0;rounded=0;fontFamily=Verdana;" edge="1" parent="luhas9mJuNffGWfN3Tlp-89" source="luhas9mJuNffGWfN3Tlp-101" target="luhas9mJuNffGWfN3Tlp-102">
          <mxGeometry relative="1" as="geometry">
            <Array as="points" />
          </mxGeometry>
        </mxCell>
        <mxCell id="luhas9mJuNffGWfN3Tlp-115" value="" style="curved=1;startArrow=none;endArrow=block;exitX=0.5;exitY=1;entryX=0.5;entryY=0;rounded=0;fontFamily=Verdana;" edge="1" parent="luhas9mJuNffGWfN3Tlp-89" source="luhas9mJuNffGWfN3Tlp-102" target="luhas9mJuNffGWfN3Tlp-103">
          <mxGeometry relative="1" as="geometry">
            <Array as="points" />
          </mxGeometry>
        </mxCell>
        <mxCell id="luhas9mJuNffGWfN3Tlp-117" value="" style="curved=1;startArrow=none;endArrow=block;exitX=0.5;exitY=1;entryX=0.5;entryY=0;rounded=0;fontFamily=Verdana;" edge="1" parent="luhas9mJuNffGWfN3Tlp-89" source="luhas9mJuNffGWfN3Tlp-105" target="luhas9mJuNffGWfN3Tlp-106">
          <mxGeometry relative="1" as="geometry">
            <Array as="points" />
          </mxGeometry>
        </mxCell>
        <mxCell id="luhas9mJuNffGWfN3Tlp-118" value="" style="curved=1;startArrow=none;endArrow=block;exitX=0.5;exitY=1;entryX=0.5;entryY=0;rounded=0;fontFamily=Verdana;" edge="1" parent="luhas9mJuNffGWfN3Tlp-89" source="luhas9mJuNffGWfN3Tlp-107" target="luhas9mJuNffGWfN3Tlp-108">
          <mxGeometry relative="1" as="geometry">
            <Array as="points" />
          </mxGeometry>
        </mxCell>
        <mxCell id="luhas9mJuNffGWfN3Tlp-119" value="" style="curved=1;startArrow=none;endArrow=block;exitX=0.5;exitY=1;entryX=0.5;entryY=0;rounded=0;fontFamily=Verdana;" edge="1" parent="luhas9mJuNffGWfN3Tlp-89" source="luhas9mJuNffGWfN3Tlp-108" target="luhas9mJuNffGWfN3Tlp-109">
          <mxGeometry relative="1" as="geometry">
            <Array as="points" />
          </mxGeometry>
        </mxCell>
        <mxCell id="luhas9mJuNffGWfN3Tlp-120" value="🌐 Frontend" style="whiteSpace=wrap;strokeWidth=2;fontFamily=Verdana;fontSize=14;fillColor=#dae8fc;strokeColor=#6c8ebf;" vertex="1" parent="1">
          <mxGeometry x="466" y="1578.68" width="128" height="34" as="geometry" />
        </mxCell>
        <mxCell id="luhas9mJuNffGWfN3Tlp-121" value="" style="endArrow=classic;html=1;rounded=0;entryX=0.5;entryY=0;entryDx=0;entryDy=0;startArrow=block;startFill=1;exitX=0.5;exitY=1;exitDx=0;exitDy=0;" edge="1" source="luhas9mJuNffGWfN3Tlp-127" target="luhas9mJuNffGWfN3Tlp-122" parent="1">
          <mxGeometry width="50" height="50" relative="1" as="geometry">
            <mxPoint x="525" y="1681.97" as="sourcePoint" />
            <mxPoint x="525.4999999999998" y="1741.97" as="targetPoint" />
          </mxGeometry>
        </mxCell>
        <mxCell id="luhas9mJuNffGWfN3Tlp-122" value="Event Stream" style="shape=step;perimeter=stepPerimeter;whiteSpace=wrap;html=1;fixedSize=1;fillColor=#e1d5e7;strokeColor=#9673a6;" vertex="1" parent="1">
          <mxGeometry x="23.5" y="1761.97" width="1010" height="50" as="geometry" />
        </mxCell>
        <mxCell id="luhas9mJuNffGWfN3Tlp-127" value="⚙️ Backend" style="whiteSpace=wrap;strokeWidth=2;fontFamily=Verdana;fillColor=#ffe6cc;strokeColor=#d79b00;" vertex="1" parent="1">
          <mxGeometry x="465" y="1638.68" width="129" height="36.71" as="geometry" />
        </mxCell>
        <mxCell id="luhas9mJuNffGWfN3Tlp-130" value="" style="endArrow=classic;html=1;rounded=0;entryX=0.5;entryY=1;entryDx=0;entryDy=0;exitX=0.5;exitY=0;exitDx=0;exitDy=0;" edge="1" parent="1" source="luhas9mJuNffGWfN3Tlp-127" target="luhas9mJuNffGWfN3Tlp-120">
          <mxGeometry width="50" height="50" relative="1" as="geometry">
            <mxPoint x="544" y="1888.68" as="sourcePoint" />
            <mxPoint x="594" y="1838.68" as="targetPoint" />
          </mxGeometry>
        </mxCell>
        <mxCell id="luhas9mJuNffGWfN3Tlp-144" value="" style="curved=1;startArrow=none;endArrow=block;exitX=0.5;exitY=1;entryX=0.5;entryY=0;rounded=0;fontFamily=Verdana;" edge="1" source="luhas9mJuNffGWfN3Tlp-147" target="luhas9mJuNffGWfN3Tlp-148" parent="1">
          <mxGeometry relative="1" as="geometry">
            <Array as="points" />
          </mxGeometry>
        </mxCell>
        <mxCell id="luhas9mJuNffGWfN3Tlp-145" value="" style="curved=1;startArrow=none;endArrow=block;exitX=0.5;exitY=1;entryX=0.5;entryY=0;rounded=0;fontFamily=Verdana;" edge="1" source="luhas9mJuNffGWfN3Tlp-148" target="luhas9mJuNffGWfN3Tlp-149" parent="1">
          <mxGeometry relative="1" as="geometry">
            <Array as="points" />
          </mxGeometry>
        </mxCell>
        <mxCell id="luhas9mJuNffGWfN3Tlp-146" value="📋 Task Management App" style="whiteSpace=wrap;strokeWidth=2;fontFamily=Verdana;fillColor=#f8cecc;strokeColor=#b85450;verticalAlign=top;" vertex="1" parent="1">
          <mxGeometry x="22" y="1471.97" width="187.68" height="250" as="geometry" />
        </mxCell>
        <mxCell id="luhas9mJuNffGWfN3Tlp-147" value="🔗 REST API" style="whiteSpace=wrap;strokeWidth=2;fontFamily=Verdana;fillColor=#ffe6cc;strokeColor=#d79b00;fontSize=11;" vertex="1" parent="1">
          <mxGeometry x="52.553154710458074" y="1505.9539577039275" width="126.5773552290406" height="36.70694864048338" as="geometry" />
        </mxCell>
        <mxCell id="luhas9mJuNffGWfN3Tlp-148" value="⚙️ Backend" style="whiteSpace=wrap;strokeWidth=2;fontFamily=Verdana;fillColor=#ffe6cc;strokeColor=#d79b00;" vertex="1" parent="1">
          <mxGeometry x="54.299049265341395" y="1576.6488217522658" width="123.08556611927396" height="36.70694864048338" as="geometry" />
        </mxCell>
        <mxCell id="luhas9mJuNffGWfN3Tlp-149" value="Database" style="shape=cylinder3;boundedLbl=1;backgroundOutline=1;size=10;strokeWidth=2;whiteSpace=wrap;fontFamily=Verdana;fillColor=#e1d5e7;strokeColor=#9673a6;" vertex="1" parent="1">
          <mxGeometry x="71.7579948141746" y="1647.3436858006041" width="88.16767502160758" height="49.622356495468274" as="geometry" />
        </mxCell>
        <mxCell id="luhas9mJuNffGWfN3Tlp-150" value="" style="curved=1;startArrow=none;endArrow=block;exitX=0.5;exitY=1;entryX=0.5;entryY=0;rounded=0;fontFamily=Verdana;" edge="1" source="luhas9mJuNffGWfN3Tlp-153" target="luhas9mJuNffGWfN3Tlp-154" parent="1">
          <mxGeometry relative="1" as="geometry">
            <Array as="points" />
          </mxGeometry>
        </mxCell>
        <mxCell id="luhas9mJuNffGWfN3Tlp-151" value="" style="curved=1;startArrow=none;endArrow=block;exitX=0.5;exitY=1;entryX=0.5;entryY=0;rounded=0;fontFamily=Verdana;" edge="1" source="luhas9mJuNffGWfN3Tlp-154" parent="1">
          <mxGeometry relative="1" as="geometry">
            <Array as="points" />
            <mxPoint x="936.1618323249781" y="1645.3736858006039" as="targetPoint" />
          </mxGeometry>
        </mxCell>
        <mxCell id="luhas9mJuNffGWfN3Tlp-152" value="Serverless" style="whiteSpace=wrap;strokeWidth=2;fontFamily=Verdana;fillColor=#f8cecc;strokeColor=#b85450;verticalAlign=top;" vertex="1" parent="1">
          <mxGeometry x="842.32" y="1470" width="187.68" height="250" as="geometry" />
        </mxCell>
        <mxCell id="luhas9mJuNffGWfN3Tlp-153" value="🔗 REST API" style="whiteSpace=wrap;strokeWidth=2;fontFamily=Verdana;fillColor=#ffe6cc;strokeColor=#d79b00;fontSize=11;" vertex="1" parent="1">
          <mxGeometry x="872.8731547104582" y="1503.9839577039274" width="126.5773552290406" height="36.70694864048338" as="geometry" />
        </mxCell>
        <mxCell id="luhas9mJuNffGWfN3Tlp-154" value="Functons" style="whiteSpace=wrap;strokeWidth=2;fontFamily=Verdana;fillColor=#ffe6cc;strokeColor=#d79b00;" vertex="1" parent="1">
          <mxGeometry x="874.6190492653415" y="1574.6788217522658" width="123.08556611927396" height="36.70694864048338" as="geometry" />
        </mxCell>
        <mxCell id="luhas9mJuNffGWfN3Tlp-156" value="Functons" style="whiteSpace=wrap;strokeWidth=2;fontFamily=Verdana;fillColor=#ffe6cc;strokeColor=#d79b00;" vertex="1" parent="1">
          <mxGeometry x="874.6190492653415" y="1621.9688217522657" width="123.08556611927396" height="36.70694864048338" as="geometry" />
        </mxCell>
        <mxCell id="luhas9mJuNffGWfN3Tlp-157" value="Functons" style="whiteSpace=wrap;strokeWidth=2;fontFamily=Verdana;fillColor=#ffe6cc;strokeColor=#d79b00;" vertex="1" parent="1">
          <mxGeometry x="876.3690492653415" y="1671.9688217522657" width="123.08556611927396" height="36.70694864048338" as="geometry" />
        </mxCell>
        <mxCell id="luhas9mJuNffGWfN3Tlp-158" value="" style="endArrow=classic;html=1;rounded=0;entryX=0;entryY=0.75;entryDx=0;entryDy=0;exitX=1;exitY=0.5;exitDx=0;exitDy=0;" edge="1" parent="1" source="luhas9mJuNffGWfN3Tlp-127" target="luhas9mJuNffGWfN3Tlp-152">
          <mxGeometry width="50" height="50" relative="1" as="geometry">
            <mxPoint x="510" y="1911.97" as="sourcePoint" />
            <mxPoint x="560" y="1861.97" as="targetPoint" />
          </mxGeometry>
        </mxCell>
        <mxCell id="luhas9mJuNffGWfN3Tlp-161" value="" style="endArrow=classic;startArrow=classic;html=1;rounded=0;entryX=0.091;entryY=0.963;entryDx=0;entryDy=0;entryPerimeter=0;exitX=0.5;exitY=0;exitDx=0;exitDy=0;" edge="1" parent="1" source="luhas9mJuNffGWfN3Tlp-90" target="luhas9mJuNffGWfN3Tlp-122">
          <mxGeometry width="50" height="50" relative="1" as="geometry">
            <mxPoint x="490" y="1930" as="sourcePoint" />
            <mxPoint x="540" y="1880" as="targetPoint" />
          </mxGeometry>
        </mxCell>
        <mxCell id="luhas9mJuNffGWfN3Tlp-162" value="" style="endArrow=classic;startArrow=classic;html=1;rounded=0;entryX=0.091;entryY=0.963;entryDx=0;entryDy=0;entryPerimeter=0;exitX=0.5;exitY=0;exitDx=0;exitDy=0;" edge="1" parent="1">
          <mxGeometry width="50" height="50" relative="1" as="geometry">
            <mxPoint x="321" y="1851.97" as="sourcePoint" />
            <mxPoint x="320" y="1809.97" as="targetPoint" />
          </mxGeometry>
        </mxCell>
        <mxCell id="luhas9mJuNffGWfN3Tlp-163" value="" style="endArrow=classic;startArrow=classic;html=1;rounded=0;entryX=0.091;entryY=0.963;entryDx=0;entryDy=0;entryPerimeter=0;exitX=0.5;exitY=0;exitDx=0;exitDy=0;" edge="1" parent="1">
          <mxGeometry width="50" height="50" relative="1" as="geometry">
            <mxPoint x="528" y="1853.97" as="sourcePoint" />
            <mxPoint x="527" y="1811.97" as="targetPoint" />
          </mxGeometry>
        </mxCell>
        <mxCell id="luhas9mJuNffGWfN3Tlp-164" value="" style="endArrow=classic;startArrow=classic;html=1;rounded=0;entryX=0.091;entryY=0.963;entryDx=0;entryDy=0;entryPerimeter=0;exitX=0.5;exitY=0;exitDx=0;exitDy=0;" edge="1" parent="1">
          <mxGeometry width="50" height="50" relative="1" as="geometry">
            <mxPoint x="731" y="1853.97" as="sourcePoint" />
            <mxPoint x="730" y="1811.97" as="targetPoint" />
          </mxGeometry>
        </mxCell>
        <mxCell id="luhas9mJuNffGWfN3Tlp-165" value="" style="endArrow=classic;startArrow=classic;html=1;rounded=0;entryX=0.091;entryY=0.963;entryDx=0;entryDy=0;entryPerimeter=0;exitX=0.5;exitY=0;exitDx=0;exitDy=0;" edge="1" parent="1">
          <mxGeometry width="50" height="50" relative="1" as="geometry">
            <mxPoint x="938.41" y="1853.97" as="sourcePoint" />
            <mxPoint x="937.41" y="1811.97" as="targetPoint" />
          </mxGeometry>
        </mxCell>
        <mxCell id="luhas9mJuNffGWfN3Tlp-166" value="" style="endArrow=classic;startArrow=classic;html=1;rounded=0;entryX=0.091;entryY=0.963;entryDx=0;entryDy=0;entryPerimeter=0;exitX=0.5;exitY=0;exitDx=0;exitDy=0;" edge="1" parent="1">
          <mxGeometry width="50" height="50" relative="1" as="geometry">
            <mxPoint x="111" y="1762" as="sourcePoint" />
            <mxPoint x="110" y="1720" as="targetPoint" />
          </mxGeometry>
        </mxCell>
        <mxCell id="luhas9mJuNffGWfN3Tlp-167" value="" style="endArrow=classic;html=1;rounded=0;exitX=0;exitY=0.5;exitDx=0;exitDy=0;entryX=1;entryY=0.75;entryDx=0;entryDy=0;" edge="1" parent="1" source="luhas9mJuNffGWfN3Tlp-127" target="luhas9mJuNffGWfN3Tlp-146">
          <mxGeometry width="50" height="50" relative="1" as="geometry">
            <mxPoint x="604" y="1667" as="sourcePoint" />
            <mxPoint x="210" y="1650" as="targetPoint" />
          </mxGeometry>
        </mxCell>
        <mxCell id="luhas9mJuNffGWfN3Tlp-168" value="" style="endArrow=classic;html=1;rounded=0;exitX=0.5;exitY=1;exitDx=0;exitDy=0;" edge="1" parent="1" source="luhas9mJuNffGWfN3Tlp-147" target="luhas9mJuNffGWfN3Tlp-148">
          <mxGeometry width="50" height="50" relative="1" as="geometry">
            <mxPoint x="300" y="1670" as="sourcePoint" />
            <mxPoint x="350" y="1620" as="targetPoint" />
          </mxGeometry>
        </mxCell>
        <mxCell id="luhas9mJuNffGWfN3Tlp-169" value="" style="endArrow=classic;html=1;rounded=0;exitX=0.5;exitY=1;exitDx=0;exitDy=0;entryX=0.5;entryY=0;entryDx=0;entryDy=0;entryPerimeter=0;" edge="1" parent="1" source="luhas9mJuNffGWfN3Tlp-148" target="luhas9mJuNffGWfN3Tlp-149">
          <mxGeometry width="50" height="50" relative="1" as="geometry">
            <mxPoint x="126" y="1553" as="sourcePoint" />
            <mxPoint x="126" y="1587" as="targetPoint" />
          </mxGeometry>
        </mxCell>
      </root>
    </mxGraphModel>
  </diagram>
</mxfile>
